<?xml version="1.0" encoding="utf-8"?>
<svg viewBox="0 0 205 20" width="205" height="20" xmlns="http://www.w3.org/2000/svg">
  <g id="Buurtcampus-" stroke="none" stroke-width="1" fill="none" fill-rule="evenodd" style="" transform="matrix(0.69044, 0, 0, 0.69044, 3.158001, 2.718293)">
    <g id="Buurtcampus-v2" transform="translate(-100.000000, -27.000000)">
      <g id="Group-2" transform="translate(100.000000, 27.000000)">
        <polygon id="Fill-1" fill="#F26F21" points="116.375375 1 112.687687 10.4998049 109 20 111.027888 20 113.055776 20 123.840973 20 125.920584 20 128 20 124.209256 10.4998049 120.418317 1"/>
        <path d="M0,1 L7.63547503,1 C9.14629872,1 10.2734431,1.06265765 11.0159208,1.18777654 C11.7587935,1.31328826 12.4232715,1.57472191 13.0095525,1.97207749 C13.5960309,2.36962949 14.0847629,2.8987822 14.4753536,3.55973204 C14.8661417,4.22068188 15.0616345,4.96137783 15.0616345,5.78240913 C15.0616345,6.67238349 14.8209217,7.48909358 14.3385086,8.23195013 C13.8564905,8.97519952 13.2030706,9.53244014 12.3776566,9.90386842 C13.5419248,10.240727 14.436255,10.8154489 15.0616345,11.6274449 C15.687014,12.4396373 16,13.39443 16,14.4916263 C16,15.3558698 15.7977933,16.1961502 15.3939723,17.0126639 C14.9899538,17.8289811 14.4382297,18.4812885 13.7391948,18.9693897 C13.0403574,19.4576872 12.177622,19.7580118 11.1529632,19.8701671 C10.5100091,19.939503 8.95929702,19.9827151 6.50161676,20 L0,20 L0,1 Z" id="Fill-2" fill="#333467"/>
        <path d="M4,4 L4,8 L6.37426141,8 C7.78553827,8 8.66246257,7.9806867 9.00521979,7.94116595 C9.6248907,7.87052933 10.1128746,7.66380544 10.4676877,7.32153076 C10.8223153,6.97943491 11,6.52932761 11,5.97049356 C11,5.43580114 10.8467979,5.00107296 10.5411356,4.66666667 C10.2349169,4.33261803 9.78031849,4.13000715 9.17641292,4.05901288 C8.81733393,4.01967096 7.78553827,4 6.08065499,4 L4,4 Z" id="Fill-4" fill="#333467"/>
        <path d="M4,11 L4,16 L7.50164633,16 C8.86441991,16 9.72980825,15.9615325 10.0958745,15.8849841 C10.6581445,15.7829197 11.1162115,15.5343308 11.4694945,15.1390242 C11.8229711,14.7435243 12,14.2142581 12,13.5506456 C12,12.9898709 11.8638389,12.5137632 11.5909355,12.1227093 C11.3180322,11.7312688 10.9244625,11.4463388 10.4088708,11.267726 C9.8932791,11.0891131 8.77493705,11 7.05442572,11 L4,11 Z" id="Fill-6" fill="#333467"/>
        <path d="M19,1 L22.798325,1 L22.798325,11.1182049 C22.798325,12.7240699 22.8448026,13.7644542 22.9391189,14.2401301 C23.1014987,15.0049197 23.489071,15.6188758 24.1004745,16.081419 C24.7120725,16.5447347 25.5486686,16.7759097 26.6090959,16.7759097 C27.6868307,16.7759097 28.4998963,16.5572881 29.0471258,16.1200447 C29.5943553,15.6824151 29.9241709,15.144938 30.0352115,14.5078065 C30.146252,13.8706749 30.2020639,12.8131023 30.2020639,11.3348953 L30.2020639,1 L34,1 L34,10.812096 C34,13.0548994 33.897516,14.6397134 33.6921591,15.565186 C33.4869967,16.4914312 33.1081754,17.273023 32.5566676,17.9101545 C32.0047709,18.5474792 31.266964,19.0554076 30.3430524,19.4331673 C29.4193352,19.810927 28.2130578,20 26.7246091,20 C24.9281251,20 23.5658853,19.7939317 22.6376954,19.3821813 C21.7093111,18.9700447 20.9761713,18.4348851 20.4371094,17.7765095 C19.8980476,17.1181338 19.5433402,16.4278918 19.3722094,15.7055906 C19.1238753,14.6352714 19,13.0548994 19,10.965247 L19,1 Z" id="Fill-8" fill="#333467"/>
        <path d="M38,1 L41.798325,1 L41.798325,11.1182049 C41.798325,12.7240699 41.8448026,13.7644542 41.9391189,14.2401301 C42.1014987,15.0049197 42.489071,15.6188758 43.1004745,16.081419 C43.7120725,16.5447347 44.5486686,16.7759097 45.6090959,16.7759097 C46.6868307,16.7759097 47.4998963,16.5572881 48.0471258,16.1200447 C48.5943553,15.6824151 48.9241709,15.144938 49.0352115,14.5078065 C49.146252,13.8706749 49.2020639,12.8131023 49.2020639,11.3348953 L49.2020639,1 L53,1 L53,10.812096 C53,13.0548994 52.897516,14.6397134 52.6921591,15.565186 C52.4869967,16.4914312 52.1081754,17.273023 51.5566676,17.9101545 C51.0047709,18.5474792 50.266964,19.0554076 49.3430524,19.4331673 C48.4193352,19.810927 47.2130578,20 45.7246091,20 C43.9281251,20 42.5658853,19.7939317 41.6376954,19.3821813 C40.7093111,18.9700447 39.9761713,18.4348851 39.4371094,17.7765095 C38.8980476,17.1181338 38.5433402,16.4278918 38.3722094,15.7055906 C38.1238753,14.6352714 38,13.0548994 38,10.965247 L38,1 Z" id="Fill-10" fill="#333467"/>
        <path d="M57,20 L57,1 L65.035635,1 C67.056126,1 68.5245789,1.17068985 69.4406025,1.51187313 C70.3562353,1.85364568 71.0896798,2.46039015 71.6397631,3.33289225 C72.1898465,4.20559076 72.4652791,5.20360588 72.4652791,6.32674117 C72.4652791,7.75236481 72.0479273,8.92990872 71.2140056,9.85858722 C70.3800839,10.7872657 69.1329155,11.3727967 67.4736733,11.6147874 C68.2991893,12.0987688 68.9806359,12.6300876 69.5178175,13.2087438 C70.0551946,13.7875965 70.7798425,14.8156641 71.6911746,16.2933393 L74,20 L69.4339562,20 L66.6739608,15.8655343 C65.6934284,14.388252 65.0229288,13.45702 64.66168,13.0726241 C64.3004312,12.6884246 63.9180705,12.4246312 63.5138159,12.2820295 C63.1093658,12.1396243 62.4687748,12.0683235 61.5918473,12.0683235 L60.8181337,12.0683235 L60.8181337,20 L57,20 Z" id="Fill-12" fill="#333467"/>
        <path d="M61,9 L63.9299744,9 C65.8295613,9 67.0152571,8.91953555 67.4882784,8.75819923 C67.9612996,8.5968629 68.33112,8.31900591 68.5987531,7.92483194 C68.8663862,7.53045427 69,7.03768588 69,6.44611937 C69,5.78305154 68.8242137,5.24811571 68.4716273,4.83988592 C68.119041,4.43247097 67.6222977,4.17478101 66.9799782,4.06701976 C66.6588185,4.02240782 65.6957447,4 64.0901488,4 L61,4 L61,9 Z" id="Fill-14" fill="#333467"/>
        <polygon id="Fill-16" fill="#333467" points="80.6007545 20 80.6007545 4.21423329 75 4.21423329 75 1 90 1 90 4.21423329 84.4121244 4.21423329 84.4121244 20"/>
        <g id="Group-20" transform="translate(92.000000, 0.000000)">
          <mask id="mask-2" fill="white">
            <polygon points="0.078745098 0.177254902 16.6005098 0.177254902 16.6005098 19.7910784 0.078745098 19.7910784" transform="matrix(1, 0, 0, 1, 0, 0)"/>
          </mask>
          <g id="Clip-19"/>
          <path d="M12.8873725,12.4942157 L16.6005098,13.6716667 C16.031098,15.7416667 15.0850196,17.2791176 13.7607059,18.2836275 C12.4365882,19.2889216 10.7569804,19.7910784 8.72129412,19.7910784 C6.20286275,19.7910784 4.13286275,18.9308824 2.51129412,17.209902 C0.889333333,15.4891176 0.078745098,13.1365686 0.078745098,10.152451 C0.078745098,6.99539216 0.893843137,4.54382353 2.52403922,2.79735294 C4.15423529,1.0504902 6.29756863,0.177156863 8.95423529,0.177156863 C11.2746275,0.177156863 13.1589412,0.863039216 14.6079608,2.23421569 C15.4705098,3.04539216 16.1173725,4.20970588 16.5487451,5.72754902 L12.7577647,6.63343137 C12.5336471,5.65009804 12.066,4.87362745 11.3542353,4.30441176 C10.6426667,3.73539216 9.77756863,3.4504902 8.76011765,3.4504902 C7.35443137,3.4504902 6.21345098,3.95519608 5.33815686,4.96441176 C4.46266667,5.97362745 4.02482353,7.60813725 4.02482353,9.86754902 C4.02482353,12.2659804 4.45639216,13.9736275 5.31854902,14.9910784 C6.18109804,16.0089216 7.30286275,16.5177451 8.68266667,16.5177451 C9.70011765,16.5177451 10.5758039,16.1944118 11.3087451,15.547549 C12.0418824,14.9006863 12.5683529,13.8828431 12.8873725,12.4942157" id="Fill-18" fill="#333467" mask="url(#mask-2)"/>
        </g>
        <polygon id="Fill-21" fill="#333467" points="131 20 131 1 136.631394 1 140.012426 13.960447 143.355891 1 149 1 149 20 145.503955 20 145.503955 5.04371918 141.804855 20 138.182045 20 134.49566 5.04371918 134.49566 20"/>
        <path d="M153,20 L153,1 L159.34462,1 C161.748903,1 163.316334,1.09506777 164.046303,1.2852033 C165.16818,1.57021017 166.107869,2.19031128 166.86456,3.14491735 C167.621452,4.09971984 168,5.33344016 168,6.84529262 C168,8.01144411 167.781778,8.99217417 167.345335,9.78728639 C166.909499,10.5822022 166.355241,11.2062317 165.68256,11.6597678 C165.010081,12.1135003 164.326874,12.4140245 163.63233,12.5607509 C162.688592,12.742244 161.321367,12.832794 159.53187,12.832794 L156.9539,12.832794 L156.9539,20 L153,20 Z" id="Fill-23" fill="#333467"/>
        <path d="M157,4 L157,9 L159.172309,9 C160.736761,9 161.782778,8.90801122 162.310359,8.72366935 C162.83794,8.53932748 163.2509,8.25079238 163.550662,7.8582462 C163.850424,7.46588218 164,7.00903494 164,6.48806878 C164,5.84706182 163.789862,5.3180808 163.369789,4.90149004 C162.949106,4.48489927 162.41746,4.22423403 161.773836,4.12040511 C161.299704,4.04025648 160.347782,4 158.917663,4 L157,4 Z" id="Fill-25" fill="#333467"/>
        <path d="M171,1 L174.798325,1 L174.798325,11.1182049 C174.798325,12.7240699 174.844803,13.7644542 174.939119,14.2401301 C175.101499,15.0049197 175.489071,15.6188758 176.10028,16.081419 C176.712072,16.5447347 177.548669,16.7759097 178.609096,16.7759097 C179.686831,16.7759097 180.499702,16.5572881 181.047126,16.1200447 C181.594355,15.6824151 181.924171,15.144938 182.035211,14.5078065 C182.146252,13.8706749 182.202064,12.8131023 182.202064,11.3348953 L182.202064,1 L186,1 L186,10.812096 C186,13.0548994 185.897322,14.6397134 185.692159,15.565186 C185.486802,16.4914312 185.108175,17.273023 184.556668,17.9101545 C184.004771,18.5474792 183.266964,19.0554076 182.342858,19.4331673 C181.419141,19.810927 180.213058,20 178.724609,20 C176.927931,20 175.565885,19.7939317 174.637501,19.3821813 C173.709311,18.9700447 172.976171,18.4348851 172.437109,17.7765095 C171.898048,17.1181338 171.54334,16.4278918 171.372015,15.7055906 C171.123875,14.6352714 171,13.0548994 171,10.965247 L171,1 Z" id="Fill-27" fill="#333467"/>
        <g id="Group-31" transform="translate(189.000000, 0.000000)">
          <mask id="mask-4" fill="white">
            <polygon points="0.068745098 0.177509804 15.4905882 0.177509804 15.4905882 19.8037843 0.068745098 19.8037843" transform="matrix(1, 0, 0, 1, 0, 0)"/>
          </mask>
          <g id="Clip-30"/>
          <path d="M0.068745098,13.2963333 L3.79482353,12.9339804 C4.01933333,14.1849608 4.47443137,15.1033922 5.15972549,15.6898627 C5.84560784,16.2765294 6.77070588,16.5694706 7.93501961,16.5694706 C9.1687451,16.5694706 10.0973725,16.3088824 10.7230588,15.7869216 C11.3487451,15.2649608 11.661098,14.6549608 11.661098,13.9559412 C11.661098,13.507902 11.5299216,13.1261373 11.2665882,12.8110392 C11.003451,12.4965294 10.5440392,12.2224118 9.88835294,11.9896667 C9.4405098,11.8343725 8.41815686,11.5584902 6.82247059,11.1616275 C4.76972549,10.653 3.32913725,10.0277059 2.50109804,9.2857451 C1.33678431,8.24201961 0.754431373,6.96947059 0.754431373,5.46888235 C0.754431373,4.503 1.02815686,3.59947059 1.576,2.7584902 C2.12384314,1.91770588 2.9132549,1.27711765 3.94364706,0.837117647 C4.97443137,0.397313725 6.21854902,0.177509804 7.67639216,0.177509804 C10.0565882,0.177509804 11.848549,0.699470588 13.0518824,1.74280392 C14.2552157,2.78672549 14.8869804,4.17986275 14.9475686,5.92162745 L11.1177647,6.08986275 C10.9540392,5.11535294 10.6022745,4.41456863 10.063451,3.98770588 C9.52462745,3.56045098 8.71580392,3.34711765 7.63776471,3.34711765 C6.52482353,3.34711765 5.6532549,3.57554902 5.02403922,4.03280392 C4.61815686,4.32613725 4.416,4.71868627 4.416,5.2102549 C4.416,5.65868627 4.60541176,6.04280392 4.98521569,6.36182353 C5.46835294,6.76711765 6.6414902,7.18986275 8.50423529,7.62966667 C10.3673725,8.06947059 11.7454118,8.52456863 12.6379608,8.99456863 C13.5307059,9.46476471 14.2293333,10.1071176 14.7336471,10.9222157 C15.2383529,11.7373137 15.490902,12.7445686 15.490902,13.9431961 C15.490902,15.0298627 15.1883529,16.047902 14.5850196,16.9965294 C13.9814902,17.945549 13.1277647,18.6506471 12.0236471,19.1120196 C10.9191373,19.5731961 9.54364706,19.8037843 7.89639216,19.8037843 C5.49815686,19.8037843 3.65717647,19.2500588 2.37168627,18.1416275 C1.08619608,17.0333922 0.319137255,15.417902 0.068745098,13.2963333" id="Fill-29" fill="#333467" mask="url(#mask-4)"/>
        </g>
      </g>
    </g>
  </g>
  <g transform="matrix(0.670302, 0, 0, 0.670302, 154.012329, 3.637949)" style="">
    <g>
      <g>
        <path d="M50.76 0.01L50.76 0L0 0L0 18.44L50.76 18.44L50.76 18.45L60 18.45L50.76 9.23L60 0.01L50.76 0.01ZM8.68 15.11C6.98 15.11 5.63 14.6 4.63 13.56C3.63 12.53 3.13 11.11 3.13 9.29C3.13 8.13 3.3 7.16 3.65 6.37C3.91 5.79 4.26 5.27 4.71 4.81C5.16 4.35 5.65 4.01 6.19 3.78C6.9 3.48 7.72 3.33 8.65 3.33C10.33 3.33 11.68 3.85 12.69 4.9C13.7 5.94 14.2 7.39 14.2 9.24C14.2 11.08 13.7 12.52 12.7 13.56C11.7 14.59 10.36 15.11 8.68 15.11ZM21.09 15.11C19.39 15.11 18.04 14.6 17.04 13.56C16.03 12.53 15.53 11.11 15.53 9.29C15.53 8.13 15.71 7.16 16.06 6.37C16.31 5.79 16.67 5.27 17.12 4.81C17.57 4.35 18.06 4.01 18.59 3.78C19.31 3.48 20.13 3.33 21.06 3.33C22.74 3.33 24.08 3.85 25.09 4.9C26.1 5.94 26.61 7.39 26.61 9.24C26.61 11.08 26.11 12.52 25.11 13.56C24.1 14.59 22.76 15.11 21.09 15.11ZM35.02 14.71C34.35 14.98 33.53 15.12 32.54 15.12C31.09 15.12 29.98 14.79 29.21 14.12C28.44 13.46 27.97 12.49 27.82 11.21C28.05 11.19 29.84 11.02 30.07 11C30.2 11.75 30.48 12.3 30.89 12.65C31.3 13 31.86 13.18 32.56 13.18C33.3 13.18 33.86 13.02 34.24 12.71C34.61 12.4 34.8 12.03 34.8 11.61C34.8 11.34 34.72 11.11 34.56 10.92C34.41 10.73 34.13 10.57 33.73 10.43C33.46 10.34 32.85 10.17 31.89 9.93C30.65 9.63 29.79 9.25 29.29 8.8C28.59 8.18 28.24 7.41 28.24 6.51C28.24 5.93 28.4 5.39 28.73 4.88C29.06 4.38 29.54 3.99 30.16 3.73C30.78 3.47 31.53 3.33 32.4 3.33C33.84 3.33 34.91 3.65 35.64 4.27C36.36 4.9 36.74 5.74 36.78 6.78C36.55 6.79 34.7 6.88 34.47 6.89C34.38 6.3 34.16 5.88 33.84 5.62C33.52 5.37 33.03 5.24 32.38 5.24C31.71 5.24 31.18 5.38 30.81 5.65C30.56 5.83 30.44 6.06 30.44 6.36C30.44 6.63 30.55 6.86 30.78 7.05C31.07 7.29 31.78 7.55 32.9 7.81C34.02 8.07 34.85 8.35 35.39 8.63C35.93 8.91 36.35 9.3 36.65 9.79C36.95 10.28 37.11 10.88 37.11 11.6C37.11 12.25 36.92 12.87 36.56 13.44C36.2 14.01 35.68 14.43 35.02 14.71ZM43.92 5.46L43.92 14.92L41.62 14.92L41.62 5.46L38.23 5.46L38.23 3.53L47.3 3.53L47.3 5.46L43.92 5.46Z" transform="matrix(1, 0, 0, 1, 0, 0)" opacity="1" fill="#343467" fill-opacity="1"/>
        <g>
          <path d="M50.76 0.01L50.76 0L0 0L0 18.44L50.76 18.44L50.76 18.45L60 18.45L50.76 9.23L60 0.01L50.76 0.01ZM8.68 15.11C6.98 15.11 5.63 14.6 4.63 13.56C3.63 12.53 3.13 11.11 3.13 9.29C3.13 8.13 3.3 7.16 3.65 6.37C3.91 5.79 4.26 5.27 4.71 4.81C5.16 4.35 5.65 4.01 6.19 3.78C6.9 3.48 7.72 3.33 8.65 3.33C10.33 3.33 11.68 3.85 12.69 4.9C13.7 5.94 14.2 7.39 14.2 9.24C14.2 11.08 13.7 12.52 12.7 13.56C11.7 14.59 10.36 15.11 8.68 15.11ZM21.09 15.11C19.39 15.11 18.04 14.6 17.04 13.56C16.03 12.53 15.53 11.11 15.53 9.29C15.53 8.13 15.71 7.16 16.06 6.37C16.31 5.79 16.67 5.27 17.12 4.81C17.57 4.35 18.06 4.01 18.59 3.78C19.31 3.48 20.13 3.33 21.06 3.33C22.74 3.33 24.08 3.85 25.09 4.9C26.1 5.94 26.61 7.39 26.61 9.24C26.61 11.08 26.11 12.52 25.11 13.56C24.1 14.59 22.76 15.11 21.09 15.11ZM35.02 14.71C34.35 14.98 33.53 15.12 32.54 15.12C31.09 15.12 29.98 14.79 29.21 14.12C28.44 13.46 27.97 12.49 27.82 11.21C28.05 11.19 29.84 11.02 30.07 11C30.2 11.75 30.48 12.3 30.89 12.65C31.3 13 31.86 13.18 32.56 13.18C33.3 13.18 33.86 13.02 34.24 12.71C34.61 12.4 34.8 12.03 34.8 11.61C34.8 11.34 34.72 11.11 34.56 10.92C34.41 10.73 34.13 10.57 33.73 10.43C33.46 10.34 32.85 10.17 31.89 9.93C30.65 9.63 29.79 9.25 29.29 8.8C28.59 8.18 28.24 7.41 28.24 6.51C28.24 5.93 28.4 5.39 28.73 4.88C29.06 4.38 29.54 3.99 30.16 3.73C30.78 3.47 31.53 3.33 32.4 3.33C33.84 3.33 34.91 3.65 35.64 4.27C36.36 4.9 36.74 5.74 36.78 6.78C36.55 6.79 34.7 6.88 34.47 6.89C34.38 6.3 34.16 5.88 33.84 5.62C33.52 5.37 33.03 5.24 32.38 5.24C31.71 5.24 31.18 5.38 30.81 5.65C30.56 5.83 30.44 6.06 30.44 6.36C30.44 6.63 30.55 6.86 30.78 7.05C31.07 7.29 31.78 7.55 32.9 7.81C34.02 8.07 34.85 8.35 35.39 8.63C35.93 8.91 36.35 9.3 36.65 9.79C36.95 10.28 37.11 10.88 37.11 11.6C37.11 12.25 36.92 12.87 36.56 13.44C36.2 14.01 35.68 14.43 35.02 14.71ZM43.92 5.46L43.92 14.92L41.62 14.92L41.62 5.46L38.23 5.46L38.23 3.53L47.3 3.53L47.3 5.46L43.92 5.46Z" transform="matrix(1, 0, 0, 1, 0, 0)" opacity="1" fill-opacity="0" stroke="#000000" stroke-width="1" stroke-opacity="0"/>
        </g>
      </g>
    </g>
  </g>
</svg>